<svg xmlns="http://www.w3.org/2000/svg" xmlns:xlink="http://www.w3.org/1999/xlink" viewBox="0 0 87.91 87.91"><defs><style>.cls-1{fill:url(#Degradado_sin_nombre_49);}</style><linearGradient id="Degradado_sin_nombre_49" y1="43.95" x2="87.91" y2="43.95" gradientUnits="userSpaceOnUse"><stop offset="0" stop-color="#f72585"/><stop offset="0.5" stop-color="#b5179e"/><stop offset="0.78" stop-color="#8c0ead"/><stop offset="0.99" stop-color="#7209b7"/></linearGradient></defs><g id="Capa_2" data-name="Capa 2"><g id="Capa_2-2" data-name="Capa 2"><path class="cls-1" d="M64.65,44l19-19a14.65,14.65,0,0,0,0-20.7h0a14.63,14.63,0,0,0-20.7,0l-19,19-19-19a14.63,14.63,0,0,0-20.7,0h0a14.63,14.63,0,0,0,0,20.7l19,19-19,19A14.64,14.64,0,0,0,25,83.62l19-19,19,19a14.65,14.65,0,0,0,20.7,0h0a14.65,14.65,0,0,0,0-20.7Z"/></g></g></svg>