<svg xmlns="http://www.w3.org/2000/svg" viewBox="0 0 62.27 60.74"><defs><style>.cls-1{fill:#4895ef;fill-rule:evenodd;}</style></defs><g id="Capa_2" data-name="Capa 2"><g id="Capa_2-2" data-name="Capa 2"><path class="cls-1" d="M31.09,0a31.14,31.14,0,0,0-9.76,60.69c1.56.27,2.14-.66,2.14-1.48s0-3.19,0-5.8C15.6,54.86,13.58,51.52,13,49.77c-.35-.9-1.87-3.66-3.2-4.39-1.09-.59-2.65-2,0-2.07,2.45,0,4.21,2.25,4.79,3.19,2.81,4.7,7.29,3.37,9.07,2.55a6.59,6.59,0,0,1,2-4.17c-6.93-.76-14.17-3.44-14.19-15.35a12.15,12.15,0,0,1,3.18-8.37,11.18,11.18,0,0,1,.3-8.25s2.61-.82,8.57,3.18A28.87,28.87,0,0,1,31.19,15a29.39,29.39,0,0,1,7.79,1c5.94-4,8.55-3.2,8.55-3.2a11.2,11.2,0,0,1,.33,8.25,12,12,0,0,1,3.2,8.36c0,12-7.25,14.61-14.18,15.4C38,45.84,39,47.7,39,50.62c0,4.17,0,7.52,0,8.57,0,.81.59,1.79,2.15,1.47A31.15,31.15,0,0,0,31.09,0Z"/></g></g></svg>