<svg xmlns="http://www.w3.org/2000/svg" viewBox="0 0 97.93 65.15"><defs><style>.cls-1,.cls-2{fill:#4895ef;}.cls-2{font-size:12px;font-family:DaysOne-Regular, Days One;letter-spacing:0.03em;}.cls-3{letter-spacing:0.02em;}</style></defs><g id="Capa_2" data-name="Capa 2"><g id="Capa_2-2" data-name="Capa 2"><path class="cls-1" d="M71.54,41A20.48,20.48,0,1,1,92,20.48,20.51,20.51,0,0,1,71.54,41Zm0-29.63a9.15,9.15,0,1,0,9.15,9.15A9.16,9.16,0,0,0,71.54,11.33Z"/><path class="cls-1" d="M35.21,20.48l8.6-8.6a6.63,6.63,0,0,0,0-9.38h0a6.63,6.63,0,0,0-9.38,0l-8.6,8.6L17.24,2.5a6.65,6.65,0,0,0-9.39,0h0a6.63,6.63,0,0,0,0,9.38l8.6,8.6-8.6,8.59a6.64,6.64,0,0,0,9.39,9.39l8.59-8.6,8.6,8.6a6.63,6.63,0,0,0,9.38,0h0a6.65,6.65,0,0,0,0-9.39Z"/><text class="cls-2" transform="translate(0 61.83)">tic<tspan class="cls-3" x="17.42" y="0">t</tspan><tspan x="23.11" y="0">ac</tspan><tspan class="cls-3" x="39.08" y="0">t</tspan><tspan x="44.77" y="0">oe 2021</tspan></text></g></g></svg>