<svg xmlns="http://www.w3.org/2000/svg" xmlns:xlink="http://www.w3.org/1999/xlink" viewBox="0 0 189.98 90.36"><defs><style>.cls-1{fill:url(#Degradado_sin_nombre_75);}.cls-2{fill:url(#Degradado_sin_nombre_49);}</style><linearGradient id="Degradado_sin_nombre_75" x1="99.62" y1="45.18" x2="189.98" y2="45.18" gradientUnits="userSpaceOnUse"><stop offset="0" stop-color="#4361ee"/><stop offset="0.51" stop-color="#4895ef"/><stop offset="0.75" stop-color="#4ab0f0"/><stop offset="0.99" stop-color="#4cc9f0"/></linearGradient><linearGradient id="Degradado_sin_nombre_49" y1="45.18" x2="87.91" y2="45.18" gradientUnits="userSpaceOnUse"><stop offset="0" stop-color="#f72585"/><stop offset="0.5" stop-color="#b5179e"/><stop offset="0.78" stop-color="#8c0ead"/><stop offset="0.99" stop-color="#7209b7"/></linearGradient></defs><g id="Capa_2" data-name="Capa 2"><g id="Capa_2-2" data-name="Capa 2"><path class="cls-1" d="M144.8,90.36A45.18,45.18,0,1,1,190,45.18,45.23,45.23,0,0,1,144.8,90.36Zm0-65.36A20.18,20.18,0,1,0,165,45.18,20.21,20.21,0,0,0,144.8,25Z"/><path class="cls-2" d="M64.65,45.18l19-19a14.65,14.65,0,0,0,0-20.7h0a14.63,14.63,0,0,0-20.7,0l-19,19-19-19a14.63,14.63,0,0,0-20.7,0h0a14.63,14.63,0,0,0,0,20.7l19,19-19,19A14.64,14.64,0,1,0,25,84.85l19-19,19,19a14.65,14.65,0,0,0,20.7,0h0a14.66,14.66,0,0,0,0-20.71Z"/></g></g></svg>